TITLE ""
FILE "DISC2Track09.mp3" MP3
  TRACK 01 AUDIO
    TITLE "DISC2Track09_01"
    INDEX 01 00:00:00
  TRACK 02 AUDIO
    TITLE "DISC2Track09_02"
    INDEX 01 00:03:01
  TRACK 03 AUDIO
    TITLE "DISC2Track09_03"
    INDEX 01 00:03:22
  TRACK 04 AUDIO
    TITLE "DISC2Track09_04"
    INDEX 01 00:07:18
  TRACK 05 AUDIO
    TITLE "DISC2Track09_05"
    INDEX 01 00:10:50
  TRACK 06 AUDIO
    TITLE "DISC2Track09_06"
    INDEX 01 00:14:03
  TRACK 07 AUDIO
    TITLE "DISC2Track09_07"
    INDEX 01 00:14:24
  TRACK 08 AUDIO
    TITLE "DISC2Track09_08"
    INDEX 01 00:17:54
  TRACK 09 AUDIO
    TITLE "DISC2Track09_09"
    INDEX 01 00:20:17
  TRACK 10 AUDIO
    TITLE "DISC2Track09_10"
    INDEX 01 00:22:49
  TRACK 11 AUDIO
    TITLE "DISC2Track09_11"
    INDEX 01 00:23:00
  TRACK 12 AUDIO
    TITLE "DISC2Track09_12"
    INDEX 01 00:24:52
  TRACK 13 AUDIO
    TITLE "DISC2Track09_13"
    INDEX 01 00:26:35
  TRACK 14 AUDIO
    TITLE "DISC2Track09_14"
    INDEX 01 00:28:14
  TRACK 15 AUDIO
    TITLE "DISC2Track09_15"
    INDEX 01 00:28:36
  TRACK 16 AUDIO
    TITLE "DISC2Track09_16"
    INDEX 01 00:31:70
  TRACK 17 AUDIO
    TITLE "DISC2Track09_17"
    INDEX 01 00:34:39
  TRACK 18 AUDIO
    TITLE "DISC2Track09_18"
    INDEX 01 00:36:73
  TRACK 19 AUDIO
    TITLE "DISC2Track09_19"
    INDEX 01 00:37:21
  TRACK 20 AUDIO
    TITLE "DISC2Track09_20"
    INDEX 01 00:40:57
  TRACK 21 AUDIO
    TITLE "DISC2Track09_21"
    INDEX 01 00:43:16
  TRACK 22 AUDIO
    TITLE "DISC2Track09_22"
    INDEX 01 00:45:46
  TRACK 23 AUDIO
    TITLE "DISC2Track09_23"
    INDEX 01 00:45:68
  TRACK 24 AUDIO
    TITLE "DISC2Track09_24"
    INDEX 01 00:50:55
  TRACK 25 AUDIO
    TITLE "DISC2Track09_25"
    INDEX 01 00:54:41
  TRACK 26 AUDIO
    TITLE "DISC2Track09_26"
    INDEX 01 00:58:21
  TRACK 27 AUDIO
    TITLE "DISC2Track09_27"
    INDEX 01 00:58:45
  TRACK 28 AUDIO
    TITLE "DISC2Track09_28"
    INDEX 01 01:00:54
  TRACK 29 AUDIO
    TITLE "DISC2Track09_29"
    INDEX 01 01:02:51
  TRACK 30 AUDIO
    TITLE "DISC2Track09_30"
    INDEX 01 01:04:42
  TRACK 31 AUDIO
    TITLE "DISC2Track09_31"
    INDEX 01 01:04:65
  TRACK 32 AUDIO
    TITLE "DISC2Track09_32"
    INDEX 01 01:09:10
  TRACK 33 AUDIO
    TITLE "DISC2Track09_33"
    INDEX 01 01:12:18
  TRACK 34 AUDIO
    TITLE "DISC2Track09_34"
    INDEX 01 01:15:26
  TRACK 35 AUDIO
    TITLE "DISC2Track09_35"
    INDEX 01 01:15:57
  TRACK 36 AUDIO
    TITLE "DISC2Track09_36"
    INDEX 01 01:18:69
  TRACK 37 AUDIO
    TITLE "DISC2Track09_37"
    INDEX 01 01:21:52
  TRACK 38 AUDIO
    TITLE "DISC2Track09_38"
    INDEX 01 01:24:27
  TRACK 39 AUDIO
    TITLE "DISC2Track09_39"
    INDEX 01 01:24:52
  TRACK 40 AUDIO
    TITLE "DISC2Track09_40"
    INDEX 01 01:29:71
  TRACK 41 AUDIO
    TITLE "DISC2Track09_41"
    INDEX 01 01:33:28
  TRACK 42 AUDIO
    TITLE "DISC2Track09_42"
    INDEX 01 01:36:51
  TRACK 43 AUDIO
    TITLE "DISC2Track09_43"
    INDEX 01 01:37:02
  TRACK 44 AUDIO
    TITLE "DISC2Track09_44"
    INDEX 01 01:41:13
  TRACK 45 AUDIO
    TITLE "DISC2Track09_45"
    INDEX 01 01:44:02
  TRACK 46 AUDIO
    TITLE "DISC2Track09_46"
    INDEX 01 01:46:48
  TRACK 47 AUDIO
    TITLE "DISC2Track09_47"
    INDEX 01 01:47:04
  TRACK 48 AUDIO
    TITLE "DISC2Track09_48"
    INDEX 01 01:51:51
  TRACK 49 AUDIO
    TITLE "DISC2Track09_49"
    INDEX 01 01:55:14
  TRACK 50 AUDIO
    TITLE "DISC2Track09_50"
    INDEX 01 01:58:37
